<svg width="22" height="22" viewBox="0 0 22 22" fill="none" xmlns="http://www.w3.org/2000/svg">
<path d="M12.3333 1.66668C12.3333 0.930297 11.7364 0.333344 11 0.333344C10.2636 0.333344 9.66668 0.930297 9.66668 1.66668V9.66668H1.66668C0.930297 9.66668 0.333344 10.2636 0.333344 11C0.333344 11.7364 0.930296 12.3333 1.66668 12.3333H9.66668V20.3333C9.66668 21.0697 10.2636 21.6667 11 21.6667C11.7364 21.6667 12.3333 21.0697 12.3333 20.3333V12.3333H20.3333C21.0697 12.3333 21.6667 11.7364 21.6667 11C21.6667 10.2636 21.0697 9.66668 20.3333 9.66668H12.3333V1.66668Z" fill="white"/>
</svg>
