<svg width="16" height="16" viewBox="0 0 16 16" fill="none" xmlns="http://www.w3.org/2000/svg">
<path d="M13.6569 15.5424C14.1776 16.0631 15.0218 16.0631 15.5425 15.5424C16.0632 15.0217 16.0632 14.1775 15.5425 13.6568L9.88569 7.99998L15.5425 2.34314C16.0632 1.82245 16.0632 0.978226 15.5425 0.457526C15.0218 -0.0631726 14.1776 -0.0631726 13.6569 0.457526L8.00007 6.11437L2.34321 0.457499C1.82251 -0.0632003 0.978287 -0.0632 0.457588 0.457499C-0.0631111 0.978198 -0.0631115 1.82242 0.457588 2.34312L6.11445 7.99998L0.457587 13.6569C-0.0631126 14.1776 -0.0631122 15.0218 0.457587 15.5425C0.978286 16.0632 1.82251 16.0632 2.3432 15.5425L8.00007 9.8856L13.6569 15.5424Z" fill="white"/>
</svg>
