<svg width="24" height="28" viewBox="0 0 24 28" fill="none" xmlns="http://www.w3.org/2000/svg">
<path d="M9.33333 22C8.59695 22 8 21.4031 8 20.6667L8 11.3333C8 10.597 8.59695 10 9.33333 10C10.0697 10 10.6667 10.597 10.6667 11.3333L10.6667 20.6667C10.6667 21.4031 10.0697 22 9.33333 22Z" fill="#D9D9D9"/>
<path d="M13.3333 20.6667C13.3333 21.4031 13.9303 22 14.6667 22C15.403 22 16 21.4031 16 20.6667V11.3333C16 10.597 15.403 10 14.6667 10C13.9303 10 13.3333 10.597 13.3333 11.3333V20.6667Z" fill="#D9D9D9"/>
<path fill-rule="evenodd" clip-rule="evenodd" d="M6.87059 2.78432L5.86667 4.66667H1.33333C0.596954 4.66667 0 5.26363 0 6.00001C0 6.73638 0.596954 7.33334 1.33333 7.33334H1.40884L2.50226 26.0777C2.54339 26.7827 3.12711 27.3333 3.83333 27.3333H20.1667C20.8729 27.3333 21.4566 26.7827 21.4977 26.0777L22.5912 7.33334H22.6667C23.403 7.33334 24 6.73638 24 6.00001C24 5.26363 23.403 4.66667 22.6667 4.66667H18.1333L17.1294 2.78432C16.4342 1.48087 15.0772 0.666672 13.6 0.666672H10.4C8.92275 0.666672 7.56576 1.48086 6.87059 2.78432ZM10.4 3.33334C9.90758 3.33334 9.45526 3.60474 9.22353 4.03922L8.88889 4.66667H15.1111L14.7765 4.03922C14.5447 3.60474 14.0924 3.33334 13.6 3.33334H10.4ZM19.92 7.33334H4.08004L5.09116 24.6667H18.9088L19.92 7.33334Z" fill="#D9D9D9"/>
</svg>
